# This file uses centimeters as units for non-parametric coordinates.

g default
v 1.162359 3.952683 -1.336381
v 1.162359 3.644832 -1.463898
v 1.162359 3.336980 -1.336381
v 1.162359 3.209463 -1.028530
v 1.162359 3.336980 -0.720678
v 1.162359 3.644832 -0.593161
v 1.162359 3.952683 -0.720678
v 1.162359 4.080200 -1.028530
v -1.162359 3.952684 -1.336381
v -1.162359 3.644832 -1.463898
v -1.162359 3.336980 -1.336381
v -1.162359 3.209463 -1.028530
v -1.162359 3.336980 -0.720678
v -1.162359 3.644832 -0.593161
v -1.162359 3.952684 -0.720678
v -1.162359 4.080200 -1.028530
v 1.162359 3.644832 -1.028530
v -1.162359 3.644832 -1.028530
v 0.000000 3.952684 -1.336381
v -0.000000 3.644832 -1.463898
v 0.000000 3.336980 -1.336381
v 0.000000 3.209463 -1.028530
v 0.000000 3.336980 -0.720678
v -0.000000 3.644832 -0.593161
v 0.000000 3.952684 -0.720678
v 0.000000 4.080200 -1.028530
v 0.375298 3.937212 -1.320910
v 0.375298 3.644832 -1.442019
v 0.375298 3.352451 -1.320910
v 0.375298 3.231343 -1.028530
v 0.375298 3.352451 -0.736149
v 0.375298 3.644832 -0.615041
v 0.375298 3.937212 -0.736149
v 0.375298 4.058321 -1.028530
v -0.375298 3.937212 -1.320910
v -0.375298 4.058321 -1.028530
v -0.375298 3.937212 -0.736149
v -0.375298 3.644832 -0.615041
v -0.375298 3.352451 -0.736149
v -0.375298 3.231343 -1.028530
v -0.375298 3.352451 -1.320910
v -0.375298 3.644832 -1.442019
v 0.562947 3.937212 -1.320910
v 0.562947 3.644832 -1.442019
v 0.562947 3.352451 -1.320910
v 0.562947 3.231343 -1.028530
v 0.562947 3.352451 -0.736149
v 0.562947 3.644832 -0.615041
v 0.562947 3.937212 -0.736149
v 0.562947 4.058321 -1.028530
v -0.562947 3.937212 -1.320910
v -0.562947 4.058321 -1.028530
v -0.562947 3.937212 -0.736149
v -0.562947 3.644832 -0.615041
v -0.562947 3.352451 -0.736149
v -0.562947 3.231343 -1.028530
v -0.562947 3.352451 -1.320910
v -0.562947 3.644832 -1.442019
v 0.562947 3.968375 -1.352073
v 0.562947 3.644832 -1.486089
v 0.375298 3.644832 -1.486089
v 0.375298 3.968375 -1.352073
v 0.562947 3.321288 -1.352073
v 0.375298 3.321288 -1.352073
v 0.562947 3.187272 -1.028530
v 0.375298 3.187272 -1.028530
v 0.562947 3.321288 -0.704986
v 0.375298 3.321288 -0.704986
v 0.562947 3.644832 -0.570970
v 0.375298 3.644832 -0.570970
v 0.562947 3.968375 -0.704986
v 0.375298 3.968375 -0.704986
v 0.562947 4.102392 -1.028530
v 0.375298 4.102392 -1.028530
v -0.375298 3.968375 -1.352073
v -0.375298 4.102392 -1.028530
v -0.562947 3.968375 -1.352073
v -0.562947 4.102392 -1.028530
v -0.375298 3.968375 -0.704986
v -0.562947 3.968375 -0.704986
v -0.375298 3.644832 -0.570970
v -0.562947 3.644832 -0.570970
v -0.375298 3.321288 -0.704986
v -0.562947 3.321288 -0.704986
v -0.375298 3.187272 -1.028530
v -0.562947 3.187272 -1.028530
v -0.375298 3.321288 -1.352073
v -0.562947 3.321288 -1.352073
v -0.375298 3.644832 -1.486089
v -0.562947 3.644832 -1.486089
vt 0.685908 0.357374
vt 0.652703 0.437538
vt 0.572539 0.357374
vt 0.572539 0.470743
vt 0.652703 0.277211
vt 0.492376 0.437538
vt 0.572539 0.244006
vt 0.459171 0.357374
vt 0.492376 0.277211
vt 0.259922 0.437538
vt 0.226717 0.357374
vt 0.340085 0.357374
vt 0.259922 0.277211
vt 0.340085 0.470743
vt 0.340085 0.244006
vt 0.420249 0.437538
vt 0.420249 0.277211
vt 0.453454 0.357374
vt 0.197138 0.197274
vt 0.228675 0.121139
vt 0.240150 0.121139
vt 0.205253 0.205389
vt 0.197138 0.045004
vt 0.205253 0.036889
vt 0.121003 0.228811
vt 0.121003 0.240287
vt 0.121003 0.013468
vt 0.121003 0.001992
vt 0.044868 0.197274
vt 0.036754 0.205389
vt 0.044868 0.045004
vt 0.036754 0.036889
vt 0.013332 0.121139
vt 0.001856 0.121139
vt 0.258672 0.121139
vt 0.290208 0.197274
vt 0.282093 0.205389
vt 0.247196 0.121139
vt 0.366343 0.228810
vt 0.366343 0.240287
vt 0.290208 0.045004
vt 0.282093 0.036889
vt 0.442478 0.197274
vt 0.450593 0.205389
vt 0.366343 0.013468
vt 0.366343 0.001992
vt 0.474014 0.121139
vt 0.485490 0.121139
vt 0.442478 0.045004
vt 0.450593 0.036889
vt 0.611501 0.228811
vt 0.687636 0.197274
vt 0.695751 0.205389
vt 0.611501 0.240287
vt 0.719172 0.121139
vt 0.730648 0.121139
vt 0.535366 0.197274
vt 0.527251 0.205389
vt 0.687636 0.045004
vt 0.695751 0.036889
vt 0.503830 0.121139
vt 0.492354 0.121139
vt 0.611501 0.013468
vt 0.611501 0.001992
vt 0.535366 0.045004
vt 0.527251 0.036889
vt 0.734637 0.439288
vt 0.810772 0.470824
vt 0.810772 0.482300
vt 0.726522 0.447403
vt 0.886907 0.439288
vt 0.895022 0.447403
vt 0.703101 0.363153
vt 0.691625 0.363153
vt 0.918443 0.363153
vt 0.929919 0.363153
vt 0.734637 0.287018
vt 0.726522 0.278903
vt 0.886907 0.287018
vt 0.895022 0.278903
vt 0.810772 0.255482
vt 0.810772 0.244006
vt 0.001856 0.540904
vt 0.082020 0.540904
vt 0.082020 0.638631
vt 0.005885 0.638631
vt 0.005885 0.443178
vt 0.082020 0.443178
vt 0.162184 0.540904
vt 0.158155 0.638631
vt 0.158155 0.443178
vt 0.336179 0.572189
vt 0.416343 0.572189
vt 0.416343 0.669915
vt 0.340208 0.669915
vt 0.340208 0.474462
vt 0.416343 0.474462
vt 0.496506 0.572189
vt 0.492478 0.669915
vt 0.492478 0.474462
vt 0.608408 0.474462
vt 0.608408 0.558712
vt 0.559545 0.558712
vt 0.559545 0.474462
vt 0.608408 0.642962
vt 0.559545 0.642962
vt 0.721000 0.486019
vt 0.721000 0.570269
vt 0.672136 0.570269
vt 0.672136 0.486019
vt 0.721000 0.654519
vt 0.672136 0.654519
vt 0.777295 0.570269
vt 0.777295 0.654519
vt 0.728432 0.654519
vt 0.728432 0.570269
vt 0.777295 0.486019
vt 0.728432 0.486019
vt 0.889886 0.570269
vt 0.889886 0.654519
vt 0.841023 0.654519
vt 0.841023 0.570269
vt 0.889886 0.486019
vt 0.841023 0.486019
vt 0.713537 0.658238
vt 0.713537 0.738402
vt 0.557452 0.738402
vt 0.557452 0.662266
vt 0.713537 0.818565
vt 0.557452 0.814537
vt 0.389933 0.673634
vt 0.389933 0.753798
vt 0.233848 0.753798
vt 0.233848 0.677663
vt 0.389933 0.833961
vt 0.233848 0.829933
vt 0.228131 0.753798
vt 0.228131 0.829933
vt 0.072046 0.833961
vt 0.072046 0.753798
vt 0.228131 0.677663
vt 0.072046 0.673634
vt 0.319746 0.917844
vt 0.319746 0.993979
vt 0.163660 0.998008
vt 0.163660 0.917844
vt 0.319746 0.841709
vt 0.163660 0.837681
vt 0.060673 0.341732
vt 0.140836 0.341732
vt 0.140836 0.439459
vt 0.064701 0.439459
vt 0.064701 0.244006
vt 0.140836 0.244006
vt 0.221000 0.341732
vt 0.216971 0.439459
vt 0.216971 0.244006
vt 0.169108 0.572188
vt 0.249272 0.572188
vt 0.249272 0.669915
vt 0.173137 0.669915
vt 0.173137 0.474462
vt 0.249272 0.474462
vt 0.329436 0.572188
vt 0.325407 0.669915
vt 0.325407 0.474462
vt 0.552113 0.474462
vt 0.552113 0.558712
vt 0.503250 0.558712
vt 0.503250 0.474462
vt 0.552113 0.642962
vt 0.503250 0.642962
vt 0.664704 0.474462
vt 0.664704 0.558712
vt 0.615841 0.558712
vt 0.615841 0.474462
vt 0.664704 0.642962
vt 0.615841 0.642962
vt 0.833591 0.570269
vt 0.833591 0.654519
vt 0.784727 0.654519
vt 0.784727 0.570269
vt 0.833591 0.486019
vt 0.784727 0.486019
vt 0.929919 0.742488
vt 0.929919 0.826738
vt 0.881056 0.826738
vt 0.881056 0.742488
vt 0.929919 0.658238
vt 0.881056 0.658238
vt 0.875339 0.658238
vt 0.875339 0.738402
vt 0.719254 0.738402
vt 0.719254 0.662267
vt 0.875339 0.818565
vt 0.719254 0.814537
vt 0.551735 0.673634
vt 0.551735 0.753798
vt 0.395650 0.753798
vt 0.395650 0.677663
vt 0.551735 0.833962
vt 0.395650 0.829933
vt 0.157941 0.917844
vt 0.157941 0.993979
vt 0.001856 0.998008
vt 0.001856 0.917844
vt 0.157941 0.841709
vt 0.001856 0.837681
vt 0.483184 0.917844
vt 0.483184 0.993980
vt 0.327099 0.998008
vt 0.327099 0.917844
vt 0.483184 0.841709
vt 0.327099 0.837681
vn 0.000000 0.707107 -0.707107
vn 0.000000 0.000000 -1.000000
vn 0.089854 0.000000 -0.995955
vn 0.089854 0.704247 -0.704246
vn 0.000000 -0.707107 -0.707107
vn 0.089854 -0.704246 -0.704247
vn 0.000000 -1.000000 -0.000000
vn 0.089854 -0.995955 -0.000000
vn 0.000000 -0.707107 0.707107
vn 0.089854 -0.704246 0.704247
vn -0.000000 -0.000000 1.000000
vn 0.089854 0.000000 0.995955
vn 0.000000 0.707107 0.707107
vn 0.089854 0.704246 0.704247
vn 0.000000 1.000000 0.000000
vn 0.089855 0.995955 0.000000
vn 0.238325 -0.000000 -0.971185
vn 0.238325 0.686732 -0.686732
vn 1.000000 -0.000000 0.000000
vn 0.238326 -0.686732 -0.686732
vn 0.238325 -0.971185 -0.000000
vn 0.238326 -0.686732 0.686732
vn 0.238325 -0.000000 0.971185
vn 0.238325 0.686731 0.686732
vn 0.238325 0.971185 0.000000
vn -0.238325 0.686732 -0.686732
vn -0.238325 -0.000000 -0.971185
vn -1.000000 0.000000 0.000000
vn -0.238326 -0.686732 -0.686732
vn -0.238325 -0.971185 0.000000
vn -0.238325 -0.686732 0.686732
vn -0.238325 0.000000 0.971185
vn -0.238325 0.686732 0.686732
vn -0.238325 0.971185 -0.000000
vn -0.089854 0.704247 -0.704246
vn -0.089854 -0.000000 -0.995955
vn -0.089854 -0.704247 -0.704247
vn -0.089854 -0.995955 0.000000
vn -0.089854 -0.704246 0.704247
vn -0.089854 -0.000000 0.995955
vn -0.089854 0.704246 0.704247
vn -0.089855 0.995955 0.000000
vn 0.165353 0.697373 -0.697374
vn 0.165352 0.000000 -0.986235
vn -0.165352 0.000000 -0.986235
vn -0.165353 0.697373 -0.697373
vn 0.165352 -0.697373 -0.697373
vn -0.165352 -0.697373 -0.697373
vn 0.165352 -0.986235 0.000000
vn -0.165352 -0.986235 0.000000
vn 0.165352 -0.697373 0.697374
vn -0.165352 -0.697373 0.697373
vn 0.165352 -0.000000 0.986235
vn -0.165352 -0.000000 0.986235
vn 0.165353 0.697372 0.697374
vn -0.165353 0.697373 0.697374
vn 0.165354 0.986234 0.000000
vn -0.165353 0.986234 0.000000
vn 0.165353 0.986234 0.000000
vn 0.165353 0.697373 -0.697374
vn -0.165353 0.697373 -0.697374
vn -0.165354 0.986234 0.000000
vn 0.165353 0.697373 0.697374
vn -0.165353 0.697373 0.697374
vn 0.165352 -0.000000 0.986235
vn -0.165352 -0.000000 0.986235
vn 0.165351 -0.697373 0.697373
vn -0.165352 -0.697373 0.697374
vn 0.165351 -0.986235 0.000000
vn -0.165353 -0.986234 0.000000
vn 0.165352 -0.697373 -0.697373
vn -0.165353 -0.697373 -0.697373
vn 0.165352 -0.000000 -0.986235
vn -0.165352 -0.000000 -0.986235
vn 0.056882 0.000000 -0.998381
vn 0.056883 0.705962 -0.705962
vn 0.056882 -0.705962 -0.705962
vn 0.056882 -0.998381 -0.000000
vn 0.056882 -0.705962 0.705962
vn 0.056882 0.000000 0.998381
vn 0.056883 0.705961 0.705962
vn 0.056883 0.998381 0.000000
vn -0.056883 0.998381 0.000000
vn -0.056883 0.705962 -0.705962
vn -0.056883 0.705962 0.705962
vn -0.056882 -0.000000 0.998381
vn -0.056882 -0.705962 0.705962
vn -0.056882 -0.998381 0.000000
vn -0.056882 -0.705962 -0.705962
vn -0.056882 -0.000000 -0.998381
s 1
g Bag2
f 19/149/1 20/150/2 42/151/3 35/152/4
f 20/150/2 21/155/5 41/156/6 42/151/3
f 21/83/5 22/84/7 40/85/8 41/86/6
f 22/84/7 23/89/9 39/90/10 40/85/8
f 23/158/9 24/159/11 38/160/12 39/161/10
f 24/159/11 25/164/13 37/165/14 38/160/12
f 25/92/13 26/93/15 36/94/16 37/95/14
f 26/93/15 19/98/1 35/99/4 36/94/16
f 2/1/17 1/2/18 17/3/19
f 3/5/20 2/1/17 17/3/19
f 4/7/21 3/5/20 17/3/19
f 5/9/22 4/7/21 17/3/19
f 6/8/23 5/9/22 17/3/19
f 7/6/24 6/8/23 17/3/19
f 8/4/25 7/6/24 17/3/19
f 1/2/18 8/4/25 17/3/19
f 9/10/26 10/11/27 18/12/28
f 10/11/27 11/13/29 18/12/28
f 11/13/29 12/15/30 18/12/28
f 12/15/30 13/17/31 18/12/28
f 13/17/31 14/18/32 18/12/28
f 14/18/32 15/16/33 18/12/28
f 15/16/33 16/14/34 18/12/28
f 16/14/34 9/10/26 18/12/28
f 27/153/35 28/154/36 20/150/2 19/149/1
f 28/154/36 29/157/37 21/155/5 20/150/2
f 29/87/37 30/88/38 22/84/7 21/83/5
f 30/88/38 31/91/39 23/89/9 22/84/7
f 31/162/39 32/163/40 24/159/11 23/158/9
f 32/163/40 33/166/41 25/164/13 24/159/11
f 33/96/41 34/97/42 26/93/15 25/92/13
f 34/97/42 27/100/35 19/98/1 26/93/15
f 59/167/43 60/168/44 61/169/45 62/170/46
f 60/168/44 63/171/47 64/172/48 61/169/45
f 63/101/47 65/102/49 66/103/50 64/104/48
f 65/102/49 67/105/51 68/106/52 66/103/50
f 67/173/51 69/174/53 70/175/54 68/176/52
f 69/174/53 71/177/55 72/178/56 70/175/54
f 71/107/55 73/108/57 74/109/58 72/110/56
f 73/108/57 59/111/43 62/112/46 74/109/58
f 76/113/59 75/114/60 77/115/61 78/116/62
f 79/117/63 76/113/59 78/116/62 80/118/64
f 81/179/65 79/180/63 80/181/64 82/182/66
f 83/183/67 81/179/65 82/182/66 84/184/68
f 85/119/69 83/120/67 84/121/68 86/122/70
f 87/123/71 85/119/69 86/122/70 88/124/72
f 89/185/73 87/186/71 88/187/72 90/188/74
f 75/189/60 89/185/73 90/188/74 77/190/61
f 1/191/18 2/192/17 44/193/75 43/194/76
f 2/192/17 3/195/20 45/196/77 44/193/75
f 3/125/20 4/126/21 46/127/78 45/128/77
f 4/126/21 5/129/22 47/130/79 46/127/78
f 5/197/22 6/198/23 48/199/80 47/200/79
f 6/198/23 7/201/24 49/202/81 48/199/80
f 7/131/24 8/132/25 50/133/82 49/134/81
f 8/132/25 1/135/18 43/136/76 50/133/82
f 52/137/83 51/138/84 9/139/26 16/140/34
f 53/141/85 52/137/83 16/140/34 15/142/33
f 54/203/86 53/204/85 15/205/33 14/206/32
f 55/207/87 54/203/86 14/206/32 13/208/31
f 56/143/88 55/144/87 13/145/31 12/146/30
f 57/147/89 56/143/88 12/146/30 11/148/29
f 58/209/90 57/210/89 11/211/29 10/212/27
f 51/213/84 58/209/90 10/212/27 9/214/26
f 43/19/76 44/20/75 60/21/44 59/22/43
f 28/35/36 27/36/35 62/37/46 61/38/45
f 44/20/75 45/23/77 63/24/47 60/21/44
f 29/41/37 28/35/36 61/38/45 64/42/48
f 45/23/77 46/27/78 65/28/49 63/24/47
f 30/45/38 29/41/37 64/42/48 66/46/50
f 46/27/78 47/31/79 67/32/51 65/28/49
f 31/49/39 30/45/38 66/46/50 68/50/52
f 47/31/79 48/33/80 69/34/53 67/32/51
f 32/47/40 31/49/39 68/50/52 70/48/54
f 48/33/80 49/29/81 71/30/55 69/34/53
f 33/43/41 32/47/40 70/48/54 72/44/56
f 49/29/81 50/25/82 73/26/57 71/30/55
f 34/39/42 33/43/41 72/44/56 74/40/58
f 50/25/82 43/19/76 59/22/43 73/26/57
f 27/36/35 34/39/42 74/40/58 62/37/46
f 36/51/16 35/52/4 75/53/60 76/54/59
f 51/67/84 52/68/83 78/69/62 77/70/61
f 37/57/14 36/51/16 76/54/59 79/58/63
f 52/68/83 53/71/85 80/72/64 78/69/62
f 38/61/12 37/57/14 79/58/63 81/62/65
f 53/71/85 54/75/86 82/76/66 80/72/64
f 39/65/10 38/61/12 81/62/65 83/66/67
f 54/75/86 55/79/87 84/80/68 82/76/66
f 40/63/8 39/65/10 83/66/67 85/64/69
f 55/79/87 56/81/88 86/82/70 84/80/68
f 41/59/6 40/63/8 85/64/69 87/60/71
f 56/81/88 57/77/89 88/78/72 86/82/70
f 42/55/3 41/59/6 87/60/71 89/56/73
f 57/77/89 58/73/90 90/74/74 88/78/72
f 35/52/4 42/55/3 89/56/73 75/53/60
f 58/73/90 51/67/84 77/70/61 90/74/74
