# This file uses centimeters as units for non-parametric coordinates.

g default
v -8.247668 0.000000 2.416679
v -8.247668 0.160579 2.577258
v -8.408247 0.160579 2.416679
v 8.408247 0.160579 2.416679
v 8.247668 0.160579 2.577258
v 8.247668 0.000000 2.416679
v -8.408247 0.481801 2.416679
v -8.247668 0.481801 2.577258
v -8.247668 0.642379 2.416679
v 8.247668 0.642379 2.416679
v 8.247668 0.481801 2.577258
v 8.408247 0.481801 2.416679
v -8.408247 0.481801 -2.416679
v -8.247668 0.642379 -2.416679
v -8.247668 0.481801 -2.577258
v 8.247668 0.481801 -2.577258
v 8.247668 0.642379 -2.416679
v 8.408247 0.481801 -2.416679
v -8.408247 0.160579 -2.416679
v -8.247668 0.160579 -2.577258
v -8.247668 0.000000 -2.416679
v 8.247668 0.000000 -2.416679
v 8.247668 0.160579 -2.577258
v 8.408247 0.160579 -2.416679
v 0.000000 0.000000 2.416679
v 0.000000 0.000000 -2.416679
v 0.000000 0.160579 -2.577258
v 0.000000 0.481801 -2.577258
v 0.000000 0.642379 -2.416679
v 0.000000 0.642379 2.416679
v 0.000000 0.481801 2.577258
v 0.000000 0.160579 2.577258
v -0.308826 0.000000 2.416679
v -0.308827 0.000000 -2.416679
v -0.308826 0.160579 -2.577258
v -0.308827 0.481801 -2.577258
v -0.308826 0.642379 -2.416679
v -0.308827 0.642379 2.416679
v -0.308826 0.481801 2.577258
v -0.308827 0.160579 2.577258
v 0.308827 0.000000 2.416679
v 0.308826 0.000000 -2.416679
v 0.308827 0.160579 -2.577258
v 0.308826 0.481801 -2.577258
v 0.308827 0.642379 -2.416679
v 0.308826 0.642379 2.416679
v 0.308827 0.481801 2.577258
v 0.308826 0.160579 2.577258
v -8.408247 0.160579 0.000000
v -8.408247 0.481801 0.000000
v -8.247668 0.642379 0.000000
v -0.308827 0.642379 0.000000
v 0.000000 0.642379 0.000000
v 0.308827 0.642379 0.000000
v 8.247668 0.642379 0.000000
v 8.408247 0.481801 0.000000
v 8.408247 0.160579 0.000000
v 8.247668 0.000000 0.000000
v 0.308827 0.000000 0.000000
v 0.000000 0.000000 0.000000
v -0.308827 0.000000 0.000000
v -8.247668 0.000000 0.000000
v -8.247668 0.000000 -0.241668
v -0.308827 0.000000 -0.241668
v 0.000000 0.000000 -0.241668
v 0.308826 0.000000 -0.241668
v 8.247668 0.000000 -0.241668
v 8.408247 0.160579 -0.241668
v 8.408247 0.481801 -0.241668
v 8.247668 0.642379 -0.241668
v 0.308827 0.642379 -0.241668
v 0.000000 0.642379 -0.241668
v -0.308826 0.642379 -0.241668
v -8.247668 0.642379 -0.241668
v -8.408247 0.481801 -0.241668
v -8.408247 0.160579 -0.241668
v -8.247668 0.000000 0.241668
v -0.308826 0.000000 0.241668
v 0.000000 0.000000 0.241668
v 0.308827 0.000000 0.241668
v 8.247668 0.000000 0.241668
v 8.408247 0.160579 0.241668
v 8.408247 0.481801 0.241668
v 8.247668 0.642379 0.241668
v 0.308826 0.642379 0.241668
v 0.000000 0.642379 0.241668
v -0.308827 0.642379 0.241668
v -8.247668 0.642379 0.241668
v -8.408247 0.481801 0.241668
v -8.408247 0.160579 0.241668
vt 0.765589 0.157611
vt 0.746193 0.157611
vt 0.746193 0.143019
vt 0.765589 0.143019
vt 0.765589 0.172204
vt 0.746193 0.172204
vt 0.736497 0.157611
vt 0.736497 0.143019
vt 0.746193 0.011688
vt 0.765589 0.011688
vt 0.775285 0.157611
vt 0.775285 0.143019
vt 0.746193 0.303534
vt 0.765589 0.303534
vt 0.736497 0.172204
vt 0.775285 0.172204
vt 0.736497 0.011688
vt 0.765589 0.001992
vt 0.746193 0.001992
vt 0.775285 0.011688
vt 0.736497 0.303534
vt 0.775285 0.303534
vt 0.746193 0.313230
vt 0.765589 0.313230
vt 0.719444 0.172204
vt 0.700048 0.172203
vt 0.700048 0.157611
vt 0.719444 0.157611
vt 0.700048 0.303534
vt 0.719444 0.303534
vt 0.690352 0.157611
vt 0.690352 0.172204
vt 0.700048 0.143019
vt 0.719444 0.143019
vt 0.729140 0.157611
vt 0.729140 0.172203
vt 0.690352 0.303534
vt 0.729140 0.303534
vt 0.719444 0.313230
vt 0.700048 0.313230
vt 0.690352 0.143019
vt 0.700048 0.011688
vt 0.719444 0.011688
vt 0.729140 0.143019
vt 0.690352 0.011688
vt 0.700048 0.001992
vt 0.719444 0.001992
vt 0.729140 0.011688
vt 0.489628 0.001992
vt 0.489628 0.481353
vt 0.475036 0.481353
vt 0.475036 0.001992
vt 0.620959 0.481353
vt 0.620959 0.001992
vt 0.489628 0.500000
vt 0.475036 0.500000
vt 0.460443 0.481353
vt 0.460443 0.001992
vt 0.620959 0.500000
vt 0.630655 0.481353
vt 0.630655 0.001992
vt 0.489628 0.518647
vt 0.475036 0.518647
vt 0.460443 0.500000
vt 0.329112 0.481353
vt 0.329112 0.001992
vt 0.620959 0.518647
vt 0.630655 0.500000
vt 0.475036 0.998008
vt 0.489628 0.998008
vt 0.460443 0.518647
vt 0.329112 0.500000
vt 0.319416 0.481353
vt 0.319416 0.001992
vt 0.620959 0.998008
vt 0.630655 0.518648
vt 0.460443 0.998008
vt 0.329112 0.518648
vt 0.319416 0.500000
vt 0.630655 0.998008
vt 0.329112 0.998008
vt 0.319416 0.518647
vt 0.319416 0.998008
vt 0.157167 0.001992
vt 0.157167 0.481353
vt 0.142574 0.481353
vt 0.142574 0.001992
vt 0.171759 0.001992
vt 0.171759 0.481353
vt 0.157167 0.500000
vt 0.142574 0.500000
vt 0.011243 0.481353
vt 0.011243 0.001992
vt 0.303090 0.481353
vt 0.303090 0.001992
vt 0.171759 0.500000
vt 0.157167 0.518647
vt 0.142574 0.518647
vt 0.011243 0.500000
vt 0.001547 0.481353
vt 0.001547 0.001992
vt 0.303090 0.500000
vt 0.312786 0.481353
vt 0.312786 0.001992
vt 0.171759 0.518647
vt 0.142574 0.998008
vt 0.157167 0.998008
vt 0.011243 0.518648
vt 0.001547 0.500000
vt 0.303090 0.518647
vt 0.312786 0.500000
vt 0.171759 0.998008
vt 0.011243 0.998008
vt 0.001547 0.518647
vt 0.303090 0.998008
vt 0.312786 0.518648
vt 0.001547 0.998008
vt 0.312786 0.998008
vt 0.656504 0.481353
vt 0.637108 0.481353
vt 0.637108 0.001992
vt 0.656504 0.001992
vt 0.656504 0.500000
vt 0.637108 0.500000
vt 0.656504 0.518647
vt 0.637108 0.518648
vt 0.637108 0.998008
vt 0.656504 0.998008
vt 0.683126 0.481353
vt 0.663730 0.481353
vt 0.663730 0.001992
vt 0.683126 0.001992
vt 0.683126 0.500000
vt 0.663730 0.500000
vt 0.683126 0.518647
vt 0.663730 0.518647
vt 0.663730 0.998008
vt 0.683126 0.998008
vn -0.019822 -0.999803 0.000000
vn -0.948696 -0.316190 0.000000
vn -0.948696 -0.316190 0.000000
vn -0.019822 -0.999804 0.000000
vn 0.000000 -0.316189 0.948696
vn 0.000000 -0.997645 0.068591
vn 0.018888 -0.997524 0.067738
vn 0.014706 -0.313633 0.949430
vn -0.950339 -0.306908 0.051609
vn -0.014706 -0.313633 0.949430
vn -0.014706 0.313633 0.949430
vn -0.950339 0.306908 0.051609
vn 0.948696 -0.316190 0.000000
vn 0.019822 -0.999804 0.000000
vn 0.019822 -0.999804 0.000000
vn 0.948696 -0.316190 0.000000
vn 0.950339 -0.306908 0.051609
vn 0.950339 0.306908 0.051609
vn 0.014706 0.313633 0.949430
vn -0.948696 0.316190 0.000000
vn -0.019822 0.999804 0.000000
vn -0.019822 0.999804 0.000000
vn -0.948696 0.316190 0.000000
vn 0.000000 0.997645 0.068591
vn 0.000000 0.316189 0.948696
vn 0.018888 0.997524 0.067738
vn 0.019822 0.999804 0.000000
vn 0.948696 0.316190 0.000000
vn 0.948696 0.316190 0.000000
vn 0.019822 0.999804 -0.000000
vn -0.950339 0.306908 -0.051609
vn -0.014706 0.313633 -0.949430
vn -0.014706 -0.313633 -0.949430
vn -0.950339 -0.306908 -0.051609
vn 0.000000 0.316189 -0.948696
vn 0.000000 0.997645 -0.068591
vn 0.018888 0.997524 -0.067738
vn 0.014706 0.313633 -0.949430
vn 0.950339 0.306908 -0.051609
vn 0.950339 -0.306908 -0.051609
vn 0.014706 -0.313633 -0.949430
vn 0.000000 -0.997645 -0.068591
vn 0.000000 -0.316190 -0.948696
vn 0.018888 -0.997524 -0.067738
vn 0.000000 1.000000 -0.000000
vn 0.000000 1.000000 0.000000
vn 0.000000 -1.000000 0.000000
vn 0.000000 -1.000000 0.000000
vn -0.018888 -0.997524 0.067738
vn -0.018888 0.997524 0.067738
vn -0.018888 0.997524 -0.067738
vn -0.018888 -0.997524 -0.067738
vn 0.000000 -1.000000 0.000000
vn 0.000000 -1.000000 0.000000
vn 0.000000 -1.000000 0.000000
vn 0.000000 -1.000000 0.000000
vn 0.000000 -0.997645 -0.068591
vn 0.000000 -0.316189 -0.948696
vn 0.000000 -0.316189 -0.948696
vn 0.000000 -0.997645 -0.068591
vn 0.000000 0.316189 -0.948696
vn 0.000000 0.316189 -0.948696
vn 0.000000 0.997645 -0.068591
vn 0.000000 0.997645 -0.068591
vn 0.000000 1.000000 -0.000000
vn 0.000000 1.000000 0.000000
vn 0.000000 1.000000 0.000000
vn 0.000000 1.000000 0.000000
vn 0.000000 0.997645 0.068591
vn 0.000000 0.316189 0.948696
vn 0.000000 0.316189 0.948696
vn 0.000000 0.997645 0.068591
vn 0.000000 -0.316190 0.948696
vn 0.000000 -0.316189 0.948696
vn 0.000000 -0.997645 0.068591
vn 0.000000 -0.997645 0.068591
vn -0.948696 0.316189 0.000000
vn -0.948696 -0.316190 0.000000
vn -0.019822 0.999804 0.000000
vn 0.000000 1.000000 0.000000
vn 0.000000 1.000000 0.000000
vn 0.000000 1.000000 0.000000
vn 0.019822 0.999804 0.000000
vn 0.948696 0.316190 0.000000
vn 0.948696 -0.316189 0.000000
vn 0.019822 -0.999804 0.000000
vn 0.000000 -1.000000 0.000000
vn 0.000000 -1.000000 0.000000
vn 0.000000 -1.000000 0.000000
vn -0.019822 -0.999804 0.000000
s 1
g Base
f 62/31/1 49/27/2 76/26/3 63/32/4
f 48/103/5 41/94/6 6/95/7 5/104/8
f 3/42/9 2/46/10 8/47/11 7/43/12
f 57/2/13 58/7/14 67/8/15 68/3/16
f 5/23/8 4/13/17 12/14/18 11/24/19
f 50/28/20 51/35/21 74/36/22 75/25/23
f 46/65/24 47/73/25 11/74/19 10/66/26
f 55/11/27 56/1/28 69/4/29 70/12/30
f 13/30/31 15/39/32 20/40/33 19/29/34
f 44/60/35 45/53/36 17/54/37 16/61/38
f 16/18/38 18/10/39 24/9/40 23/19/41
f 42/92/42 43/100/43 23/101/41 22/93/44
f 47/119/25 48/120/5 5/121/8 11/122/19
f 70/49/30 71/50/45 54/51/46 55/52/27
f 43/129/43 44/130/35 16/131/38 23/132/41
f 58/84/14 59/85/47 66/86/48 67/87/15
f 56/1/28 57/2/13 68/3/16 69/4/29
f 75/25/23 76/26/3 49/27/2 50/28/20
f 1/45/49 2/46/10 3/42/9
f 4/13/17 5/23/8 6/21/7
f 7/43/12 8/47/11 9/48/50
f 10/22/26 11/24/19 12/14/18
f 13/30/31 14/38/51 15/39/32
f 16/18/38 17/20/37 18/10/39
f 19/29/34 20/40/33 21/37/52
f 22/17/44 23/19/41 24/9/40
f 60/90/53 61/97/54 64/98/55 65/91/56
f 34/108/57 35/114/58 27/109/59 26/99/60
f 35/135/58 36/136/61 28/134/62 27/133/59
f 36/76/61 37/67/63 29/59/64 28/68/62
f 72/55/65 73/62/66 52/63/67 53/56/68
f 38/78/69 39/82/70 31/79/71 30/72/72
f 39/125/70 40/126/73 32/124/74 31/123/71
f 40/116/73 33/110/75 25/102/76 32/111/74
f 63/106/4 64/98/55 61/97/54 62/107/1
f 21/113/52 20/117/33 35/114/58 34/108/57
f 15/137/32 36/136/61 35/135/58 20/138/33
f 15/80/32 14/75/51 37/67/63 36/76/61
f 51/69/21 52/63/67 73/62/66 74/70/22
f 9/81/50 8/83/11 39/82/70 38/78/69
f 2/127/10 40/126/73 39/125/70 8/128/11
f 2/118/10 1/115/49 33/110/75 40/116/73
f 59/85/47 60/90/53 65/91/56 66/86/48
f 26/99/60 27/109/59 43/100/43 42/92/42
f 27/133/59 28/134/62 44/130/35 43/129/43
f 28/68/62 29/59/64 45/53/36 44/60/35
f 71/50/45 72/55/65 53/56/68 54/51/46
f 30/72/72 31/79/71 47/73/25 46/65/24
f 31/123/71 32/124/74 48/120/5 47/119/25
f 32/111/74 25/102/76 41/94/6 48/103/5
f 89/34/77 90/33/78 3/42/9 7/43/12
f 7/43/12 9/48/50 88/44/79 89/34/77
f 9/81/50 38/78/69 87/71/80 88/77/79
f 86/64/81 87/71/80 38/78/69 30/72/72
f 85/57/82 86/64/81 30/72/72 46/65/24
f 84/58/83 85/57/82 46/65/24 10/66/26
f 10/22/26 12/14/18 83/5/84 84/16/83
f 4/13/17 82/6/85 83/5/84 12/14/18
f 4/13/17 6/21/7 81/15/86 82/6/85
f 41/94/6 80/89/87 81/88/86 6/95/7
f 25/102/76 79/96/88 80/89/87 41/94/6
f 33/110/75 78/105/89 79/96/88 25/102/76
f 77/112/90 78/105/89 33/110/75 1/115/49
f 1/45/49 3/42/9 90/33/78 77/41/90
f 21/113/52 34/108/57 64/98/55 63/106/4
f 65/91/56 64/98/55 34/108/57 26/99/60
f 66/86/48 65/91/56 26/99/60 42/92/42
f 67/87/15 66/86/48 42/92/42 22/93/44
f 68/3/16 67/8/15 22/17/44 24/9/40
f 69/4/29 68/3/16 24/9/40 18/10/39
f 70/12/30 69/4/29 18/10/39 17/20/37
f 45/53/36 71/50/45 70/49/30 17/54/37
f 29/59/64 72/55/65 71/50/45 45/53/36
f 37/67/63 73/62/66 72/55/65 29/59/64
f 74/70/22 73/62/66 37/67/63 14/75/51
f 75/25/23 74/36/22 14/38/51 13/30/31
f 19/29/34 76/26/3 75/25/23 13/30/31
f 63/32/4 76/26/3 19/29/34 21/37/52
f 62/107/1 61/97/54 78/105/89 77/112/90
f 79/96/88 78/105/89 61/97/54 60/90/53
f 80/89/87 79/96/88 60/90/53 59/85/47
f 81/88/86 80/89/87 59/85/47 58/84/14
f 82/6/85 81/15/86 58/7/14 57/2/13
f 83/5/84 82/6/85 57/2/13 56/1/28
f 84/16/83 83/5/84 56/1/28 55/11/27
f 55/52/27 54/51/46 85/57/82 84/58/83
f 54/51/46 53/56/68 86/64/81 85/57/82
f 53/56/68 52/63/67 87/71/80 86/64/81
f 88/77/79 87/71/80 52/63/67 51/69/21
f 89/34/77 88/44/79 51/35/21 50/28/20
f 50/28/20 49/27/2 90/33/78 89/34/77
f 77/41/90 90/33/78 49/27/2 62/31/1
